<?xml version="1.0" standalone="no"?>
<!DOCTYPE svg PUBLIC "-//W3C//DTD SVG 20010904//EN"
 "http://www.w3.org/TR/2001/REC-SVG-20010904/DTD/svg10.dtd">
<svg version="1.0" xmlns="http://www.w3.org/2000/svg"
 width="246.000000pt" height="205.000000pt" viewBox="0 0 246.000000 205.000000"
 preserveAspectRatio="xMidYMid meet">

<g transform="translate(0.000000,205.000000) scale(0.100000,-0.100000)"
fill="#000000" stroke="none">
<path d="M651 1993 c-23 -45 -34 -145 -22 -209 11 -63 11 -64 -18 -105 -82
-112 -99 -255 -55 -461 l6 -27 -133 -4 -134 -3 137 -2 c124 -2 138 -4 148 -21
9 -18 6 -20 -32 -24 l-43 -4 48 -1 c26 -1 47 -7 47 -13 0 -6 25 -37 55 -68 76
-80 185 -128 347 -155 l36 -7 -24 -24 c-14 -14 -33 -45 -44 -69 -16 -37 -25
-46 -57 -55 -85 -24 -169 -1 -214 59 -76 101 -144 147 -199 133 -32 -8 -23
-29 24 -57 26 -15 56 -45 73 -72 58 -94 89 -128 138 -153 42 -22 62 -26 132
-25 l83 0 0 -124 c0 -135 2 -129 -74 -190 -24 -19 -10 -32 36 -32 53 0 106 26
129 64 16 27 19 52 19 183 0 145 9 203 32 203 6 0 8 -94 6 -223 l-3 -223 -28
-33 c-31 -38 -28 -51 14 -51 42 0 87 26 109 63 18 29 20 52 20 265 0 199 2
232 15 232 13 0 15 -32 15 -227 0 -257 5 -281 70 -315 68 -36 131 -11 79 31
-24 19 -24 21 -27 253 -3 191 -1 231 10 220 9 -9 15 -63 18 -185 6 -193 10
-205 76 -237 41 -20 109 -27 118 -12 7 11 -5 27 -30 40 -44 23 -54 67 -54 249
0 187 -6 220 -50 274 l-30 38 37 6 c196 31 324 99 379 200 17 32 23 35 64 37
l45 1 -43 4 c-34 3 -42 8 -38 19 3 9 6 18 6 20 0 2 64 5 143 6 l142 2 -138 3
-138 4 8 57 c4 31 8 109 7 172 -1 131 -18 188 -83 275 -33 44 -36 54 -29 80
11 36 4 139 -14 196 l-12 41 -47 -5 c-49 -6 -159 -52 -208 -87 -27 -19 -34
-19 -83 -8 -71 17 -336 14 -408 -4 l-55 -13 -75 43 c-117 67 -210 89 -229 55z
m484 -517 c55 -2 156 0 225 4 211 13 283 -12 343 -118 25 -45 29 -63 29 -122
-1 -91 -18 -142 -63 -194 -44 -50 -108 -81 -200 -95 -81 -14 -375 -14 -454 -1
-204 33 -294 115 -303 273 -6 90 15 142 77 200 54 51 112 67 211 60 19 -1 80
-4 135 -7z m-555 -576 c0 -5 -4 -10 -10 -10 -5 0 -10 5 -10 10 0 6 5 10 10 10
6 0 10 -4 10 -10z m40 -30 c0 -5 -4 -10 -10 -10 -5 0 -10 5 -10 10 0 6 5 10
10 10 6 0 10 -4 10 -10z m40 -45 c0 -8 -4 -15 -10 -15 -5 0 -10 7 -10 15 0 8
5 15 10 15 6 0 10 -7 10 -15z m48 -53 c2 -7 -3 -12 -12 -12 -9 0 -16 7 -16 16
0 17 22 14 28 -4z m47 -41 c10 -17 -12 -21 -25 -6 -10 12 -10 15 3 15 9 0 18
-4 22 -9z m195 1 c0 -13 -12 -22 -22 -16 -10 6 -1 24 13 24 5 0 9 -4 9 -8z
m-130 -22 c0 -5 -7 -10 -15 -10 -8 0 -15 5 -15 10 0 6 7 10 15 10 8 0 15 -4
15 -10z m68 -1 c-2 -6 -8 -10 -13 -10 -5 0 -11 4 -13 10 -2 6 4 11 13 11 9 0
15 -5 13 -11z"/>
<path d="M919 1320 c-18 -15 -20 -18 -5 -14 20 8 37 -11 29 -33 -7 -18 -30
-16 -42 5 -8 13 -10 5 -11 -34 0 -119 108 -145 127 -31 7 46 -2 82 -27 107
-25 25 -42 25 -71 0z"/>
<path d="M1469 1321 c-20 -16 -24 -28 -24 -79 0 -67 21 -102 61 -102 61 0 89
126 39 175 -29 30 -45 31 -76 6z m30 -47 c-12 -15 -39 -8 -39 11 0 18 22 25
38 12 9 -7 9 -13 1 -23z"/>
<path d="M1204 1115 c-7 -18 3 -35 21 -35 21 0 28 19 15 35 -16 19 -29 19 -36
0z"/>
<path d="M1166 1026 c3 -7 16 -18 30 -25 29 -13 74 3 82 29 4 12 1 11 -15 -2
-24 -22 -72 -23 -79 -3 -4 8 -10 15 -15 15 -4 0 -6 -6 -3 -14z"/>
<path d="M218 1173 c12 -2 30 -2 40 0 9 3 -1 5 -23 4 -22 0 -30 -2 -17 -4z"/>
<path d="M2203 1173 c9 -2 25 -2 35 0 9 3 1 5 -18 5 -19 0 -27 -2 -17 -5z"/>
<path d="M143 1163 c9 -2 23 -2 30 0 6 3 -1 5 -18 5 -16 0 -22 -2 -12 -5z"/>
<path d="M2288 1163 c6 -2 18 -2 25 0 6 3 1 5 -13 5 -14 0 -19 -2 -12 -5z"/>
<path d="M88 1153 c7 -3 16 -2 19 1 4 3 -2 6 -13 5 -11 0 -14 -3 -6 -6z"/>
<path d="M2348 1153 c7 -3 16 -2 19 1 4 3 -2 6 -13 5 -11 0 -14 -3 -6 -6z"/>
<path d="M418 1123 c12 -2 30 -2 40 0 9 3 -1 5 -23 4 -22 0 -30 -2 -17 -4z"/>
<path d="M1998 1123 c12 -2 32 -2 45 0 12 2 2 4 -23 4 -25 0 -35 -2 -22 -4z"/>
<path d="M333 1113 c9 -2 23 -2 30 0 6 3 -1 5 -18 5 -16 0 -22 -2 -12 -5z"/>
<path d="M2093 1113 c9 -2 23 -2 30 0 6 3 -1 5 -18 5 -16 0 -22 -2 -12 -5z"/>
<path d="M268 1103 c6 -2 18 -2 25 0 6 3 1 5 -13 5 -14 0 -19 -2 -12 -5z"/>
<path d="M2168 1103 c6 -2 18 -2 25 0 6 3 1 5 -13 5 -14 0 -19 -2 -12 -5z"/>
<path d="M208 1093 c6 -2 18 -2 25 0 6 3 1 5 -13 5 -14 0 -19 -2 -12 -5z"/>
<path d="M2218 1093 c6 -2 18 -2 25 0 6 3 1 5 -13 5 -14 0 -19 -2 -12 -5z"/>
<path d="M168 1083 c7 -3 16 -2 19 1 4 3 -2 6 -13 5 -11 0 -14 -3 -6 -6z"/>
<path d="M2268 1083 c6 -2 18 -2 25 0 6 3 1 5 -13 5 -14 0 -19 -2 -12 -5z"/>
<path d="M95 1070 c-13 -5 -14 -9 -5 -9 8 0 24 4 35 9 13 5 14 9 5 9 -8 0 -24
-4 -35 -9z"/>
<path d="M2318 1073 c7 -3 16 -2 19 1 4 3 -2 6 -13 5 -11 0 -14 -3 -6 -6z"/>
</g>
</svg>
